<svg xmlns="http://www.w3.org/2000/svg" viewBox="-332 -41 121.54 37"><defs><style>.cls-1 { fill: #1f89ca; } .cls-1, .cls-2 { fill-rule: evenodd; } .cls-2 { fill: #99cdef; } .cls-3 { fill: #6ec0eb; } .cls-4 { fill: #b4def6; } .cls-5 { fill: #31a9e0; } .cls-6 { fill: #35a6de; } .cls-7 { fill: #b4e0f8; } .cls-8 { fill: #3ca1da; } .cls-9 { fill: #70c2ed; } .cls-10 { fill: #68c3ef; } .cls-11 { fill: #72bde9; } .cls-12 { fill: #b4dcf5; } .cls-13 { fill: #3ea0d9; } .cls-14 { fill: #3f9ed8; } .cls-15 { fill: #2fabe1; } .cls-16 { fill: #6ccaf2; }</style></defs><g id="Group_182"><path id="Path_11845" class="cls-1" d="M80.3 363.27l3.057.188a6.45 6.45 0 0 1-1.554 3.988 4.688 4.688 0 0 1-3.675 1.54 4.86 4.86 0 0 1-4.237-2.063 9.712 9.712 0 0 1-1.456-5.683 9.824 9.824 0 0 1 1.446-5.715 4.91 4.91 0 0 1 4.293-2.064q4.71 0 5.127 5.827l-3.025.22q-.12-3.353-2.094-3.353a1.843 1.843 0 0 0-1.648 1.08 9.66 9.66 0 0 0-.613 4.2 8.887 8.887 0 0 0 .563 3.82 1.813 1.813 0 0 0 1.69 1.036q1.807 0 2.125-3.025zm7.7-2.122l-2.95-.286a3.62 3.62 0 0 1 1.43-2.58 5.024 5.024 0 0 1 3.075-.9 4.666 4.666 0 0 1 2.515.6 2.642 2.642 0 0 1 1.2 1.4 8.885 8.885 0 0 1 .248 2.458v4.447a8.907 8.907 0 0 0 .183 2.47h-2.877a6.092 6.092 0 0 1-.154-1.712 3.284 3.284 0 0 1-3.058 1.943 2.936 2.936 0 0 1-2.116-.78 3 3 0 0 1-.81-2.267 3.52 3.52 0 0 1 1.236-2.884c.826-.677 2.323-1.08 4.5-1.22v-.418a3.636 3.636 0 0 0-.227-1.544.89.89 0 0 0-.877-.432c-.793 0-1.23.572-1.31 1.71zm2.415 2.275a4 4 0 0 0-1.935.6 1.8 1.8 0 0 0-.58 1.506q0 1.41 1.04 1.41a1.29 1.29 0 0 0 1.02-.637 4.238 4.238 0 0 0 .455-2.334v-.54zm12.73-3.133l-2.225.66q-.44-1.513-1.635-1.513a.858.858 0 0 0-.97.97 1.01 1.01 0 0 0 .363.84 5.907 5.907 0 0 0 1.5.683 13.022 13.022 0 0 1 1.875.793 2.81 2.81 0 0 1 1 1.03 3.033 3.033 0 0 1 .41 1.588 3.416 3.416 0 0 1-1.114 2.59 4.35 4.35 0 0 1-3.112 1.05q-3.762 0-4.172-3.32l2.474-.4q.3 1.667 1.75 1.667c.827 0 1.237-.345 1.237-1.04a1 1 0 0 0-.362-.835 4.948 4.948 0 0 0-1.41-.62 5.59 5.59 0 0 1-2.637-1.488 3.082 3.082 0 0 1-.72-2.018 3.238 3.238 0 0 1 1.13-2.582 4.2 4.2 0 0 1 2.832-.97 3.592 3.592 0 0 1 3.778 2.913zm10.207 1.41l-2.893.11a4.15 4.15 0 0 0-.333-1.55.923.923 0 0 0-.893-.54q-1.565 0-1.568 3.287a6.55 6.55 0 0 0 .38 2.67 1.212 1.212 0 0 0 1.13.763c.78 0 1.21-.688 1.28-2.064l2.893.183q-.387 4.427-4.367 4.427a3.93 3.93 0 0 1-3.295-1.454 6.95 6.95 0 0 1-1.14-4.317 6.776 6.776 0 0 1 1.2-4.334 4.1 4.1 0 0 1 3.36-1.5q3.898.002 4.24 4.318zm4.666-.563l-2.95-.286a3.622 3.622 0 0 1 1.43-2.58 5.024 5.024 0 0 1 3.077-.887 4.666 4.666 0 0 1 2.515.6 2.642 2.642 0 0 1 1.2 1.4 8.886 8.886 0 0 1 .248 2.458v4.448a8.907 8.907 0 0 0 .183 2.47h-2.88a6.1 6.1 0 0 1-.154-1.712 3.284 3.284 0 0 1-3.057 1.943 2.936 2.936 0 0 1-2.117-.78 3 3 0 0 1-.81-2.268 3.52 3.52 0 0 1 1.236-2.885c.825-.677 2.322-1.08 4.5-1.22v-.418a3.636 3.636 0 0 0-.228-1.545.89.89 0 0 0-.877-.432c-.793 0-1.23.572-1.31 1.71zm2.415 2.275a3.994 3.994 0 0 0-1.935.6 1.8 1.8 0 0 0-.58 1.506q0 1.41 1.04 1.41a1.29 1.29 0 0 0 1.02-.636 4.237 4.237 0 0 0 .455-2.334v-.54zm5.853-9.223l3.02-.1v3.507h2.053v2.447h-2.06v4.094a12.653 12.653 0 0 0 .054 1.473.853.853 0 0 0 .332.565 1.514 1.514 0 0 0 .942.227q.356 0 .882-.022v2.36a8.732 8.732 0 0 1-1.89.236 3.656 3.656 0 0 1-2.158-.54 2.393 2.393 0 0 1-.96-1.35 11.543 11.543 0 0 1-.21-2.6v-4.433h-1.254v-2.447h1.24zm9.644 6.958l-2.95-.286a3.62 3.62 0 0 1 1.43-2.58 5.024 5.024 0 0 1 3.07-.9 4.666 4.666 0 0 1 2.514.6 2.642 2.642 0 0 1 1.2 1.4 8.887 8.887 0 0 1 .248 2.458v4.447a8.908 8.908 0 0 0 .183 2.47h-2.874a6.094 6.094 0 0 1-.153-1.712 3.284 3.284 0 0 1-3.057 1.943 2.936 2.936 0 0 1-2.116-.78 3 3 0 0 1-.81-2.267 3.52 3.52 0 0 1 1.236-2.884c.826-.677 2.323-1.08 4.5-1.22v-.418a3.636 3.636 0 0 0-.227-1.544.89.89 0 0 0-.877-.432c-.793 0-1.23.572-1.31 1.71zm2.415 2.275a4 4 0 0 0-1.935.6 1.8 1.8 0 0 0-.58 1.506q0 1.41 1.04 1.41a1.29 1.29 0 0 0 1.02-.637 4.238 4.238 0 0 0 .455-2.334v-.54zm12.73-3.133l-2.217.664q-.44-1.514-1.635-1.514a.858.858 0 0 0-.97.97 1.01 1.01 0 0 0 .363.84 5.908 5.908 0 0 0 1.5.683 13.03 13.03 0 0 1 1.875.793 2.81 2.81 0 0 1 1 1.03 3.033 3.033 0 0 1 .41 1.588 3.416 3.416 0 0 1-1.113 2.59 4.35 4.35 0 0 1-3.11 1.05q-3.763 0-4.173-3.322l2.474-.4q.3 1.668 1.75 1.668c.827 0 1.237-.345 1.237-1.04a1 1 0 0 0-.362-.836 4.948 4.948 0 0 0-1.41-.62 5.59 5.59 0 0 1-2.637-1.488 3.082 3.082 0 0 1-.72-2.018 3.238 3.238 0 0 1 1.13-2.582 4.2 4.2 0 0 1 2.832-.97 3.6 3.6 0 0 1 3.77 2.913z" transform="translate(-332 -40.943) translate(-72.43 -353.391)"/><path id="Path_11846" class="cls-2" d="M378.646 359.817q.63.022 1.255.035h2.33c.33 0 .637-.02.934-.035l.03.486-1.38.34c-.145.038-.21.124-.188.256a8.65 8.65 0 0 1 .068 1.035 6.857 6.857 0 0 1-1.125 3.95 7.484 7.484 0 0 0 1.324 1.493 2.16 2.16 0 0 0 1.39.475 3.72 3.72 0 0 0 .675-.067l.085.486a4.383 4.383 0 0 1-2.018.5 3.724 3.724 0 0 1-2.968-1.48 6.714 6.714 0 0 1-4.162 1.436 5.77 5.77 0 0 1-3.583-1.1 3.55 3.55 0 0 1-1.457-2.99q0-2.558 3.2-4.237a9.525 9.525 0 0 1-1.54-2.228 4.393 4.393 0 0 1-.336-1.676 3.157 3.157 0 0 1 1.114-2.526 4.118 4.118 0 0 1 2.764-.97 3.762 3.762 0 0 1 2.45.81 2.7 2.7 0 0 1 .99 2.217q0 2.283-3.168 3.86l4.493 5.15a5.854 5.854 0 0 0 .726-2.933 7.694 7.694 0 0 0-.064-1.08.472.472 0 0 0-.14-.3.707.707 0 0 0-.316-.13l-1.368-.27-.022-.5zm-5.06 1.2a4.018 4.018 0 0 0-1.568 3.238 3.208 3.208 0 0 0 .92 2.428 3.526 3.526 0 0 0 2.564.893 4.542 4.542 0 0 0 2.893-1.036l-4.81-5.5zm1.257-1.7a4 4 0 0 0 1.83-3.222 2.374 2.374 0 0 0-.514-1.592 1.643 1.643 0 0 0-1.3-.6 1.743 1.743 0 0 0-1.318.54 1.92 1.92 0 0 0-.5 1.392 4.434 4.434 0 0 0 1.28 2.9z" transform="translate(-332 -40.943) translate(-289.595 -353.05)"/><path id="Path_11847" class="cls-1" d="M431.936 363.27l3.057.188a6.45 6.45 0 0 1-1.554 3.988 4.688 4.688 0 0 1-3.676 1.54 4.862 4.862 0 0 1-4.237-2.063 9.712 9.712 0 0 1-1.457-5.683 9.823 9.823 0 0 1 1.446-5.715 4.91 4.91 0 0 1 4.293-2.064q4.71 0 5.126 5.827l-3.025.22q-.118-3.353-2.093-3.353a1.844 1.844 0 0 0-1.65 1.08 9.64 9.64 0 0 0-.61 4.2 8.887 8.887 0 0 0 .565 3.82 1.813 1.813 0 0 0 1.686 1.044q1.808 0 2.126-3.025zm7.844-6.577h-3.154v-3.087h3.154v3.082zm-3.133.915h3.11v11.142h-3.11v-11.143zm8.365 3.54l-2.95-.286a3.62 3.62 0 0 1 1.43-2.58 5.025 5.025 0 0 1 3.085-.9 4.666 4.666 0 0 1 2.515.6 2.64 2.64 0 0 1 1.2 1.4 8.887 8.887 0 0 1 .248 2.458v4.447a8.91 8.91 0 0 0 .183 2.47h-2.874a6.094 6.094 0 0 1-.155-1.712 3.284 3.284 0 0 1-3.057 1.943 2.936 2.936 0 0 1-2.116-.78 3 3 0 0 1-.81-2.267 3.52 3.52 0 0 1 1.237-2.884c.825-.677 2.322-1.08 4.5-1.22v-.418a3.635 3.635 0 0 0-.228-1.544.89.89 0 0 0-.877-.432c-.793 0-1.23.572-1.31 1.71zm2.415 2.275a4 4 0 0 0-1.935.6 1.8 1.8 0 0 0-.58 1.506q0 1.41 1.04 1.41a1.29 1.29 0 0 0 1.02-.637 4.238 4.238 0 0 0 .455-2.334z" transform="translate(-332 -40.943) translate(-329.182 -353.391)"/><path id="Rectangle_165" class="cls-3" d="M-324.148-23h6.878v6.88h-6.878z"/><path id="Rectangle_166" class="cls-4" d="M-316.535-23h6.878v6.88h-6.878z"/><path id="Rectangle_167" class="cls-5" d="M-308.923-23h6.878v6.88h-6.878z"/><path id="Rectangle_168" class="cls-6" d="M-301.31-23h6.877v6.88h-6.878z"/><path id="Rectangle_169" class="cls-6" d="M-331.76-23h6.878v6.88h-6.878z"/><path id="Rectangle_170" class="cls-7" d="M-293.698-23h6.878v6.88h-6.878z"/><path id="Rectangle_171" class="cls-8" d="M-286.086-23h6.878v6.88h-6.878z"/><path id="Rectangle_172" class="cls-9" d="M-278.474-23h6.878v6.88h-6.878z"/><path id="Rectangle_173" class="cls-10" d="M-270.862-23h6.878v6.88h-6.878z"/><path id="Rectangle_174" class="cls-11" d="M-263.25-23h6.88v6.88h-6.88z"/><path id="Rectangle_175" class="cls-12" d="M-255.634-23h6.878v6.88h-6.878z"/><path id="Rectangle_176" class="cls-13" d="M-248.022-23h6.878v6.88h-6.878z"/><path id="Rectangle_177" class="cls-14" d="M-240.41-23h6.878v6.88h-6.878z"/><path id="Rectangle_178" class="cls-4" d="M-232.797-23h6.878v6.88h-6.877z"/><path id="Rectangle_179" class="cls-15" d="M-225.185-23h6.878v6.88h-6.878z"/><path id="Rectangle_180" class="cls-16" d="M-217.573-23h6.878v6.88h-6.878z"/><path id="Path_11848" class="cls-1" d="M186.73 458.29v-1.008a2.6 2.6 0 0 0 1.178-.578v-1.633a5.842 5.842 0 0 0-1.176.12v-1.017a8.982 8.982 0 0 1 1.166-.09v-.37c-.04-.568-.33-.71-.877-.71a2.494 2.494 0 0 0-.288.017v-1.08q.17-.013.345-.015a1.77 1.77 0 0 1 2.024 1.98v3.037c0 .1 0 .254.114.294l.332.12-.7.962-.194-.08a.99.99 0 0 1-.567-.5 3.173 3.173 0 0 1-1.35.54zm7.826-1.89a1.884 1.884 0 0 1-2.124 1.905 3.907 3.907 0 0 1-2.107-.586l-.21-.128.5-1.015.254.173a3.017 3.017 0 0 0 1.56.5c.54 0 .956-.216.956-.81s-.7-.753-1.152-.9c-.98-.326-1.89-.73-1.89-1.92s1.053-1.7 2.114-1.7a3.978 3.978 0 0 1 1.786.45l.216.108-.4 1.06-.27-.167a2.7 2.7 0 0 0-1.317-.382c-.46 0-.955.116-.955.667s.828.712 1.214.834c.958.32 1.824.77 1.824 1.928zm-7.825-4.466v1.08a3.545 3.545 0 0 0-1.53.6l-.25.17-.507-.99.22-.126a4.925 4.925 0 0 1 2.07-.72zm0 2.223v1.017c-.633.146-1.175.464-1.175 1.168a.912.912 0 0 0 .912.944 1.782 1.782 0 0 0 .27-.02v1.007a2.763 2.763 0 0 1-.39.027 1.876 1.876 0 0 1-1.99-1.938c0-1.484 1.15-2.024 2.38-2.21zm-28.446 4.158v-1.05c1.15-.032 1.35-1.177 1.35-2.12 0-1.02-.085-2.122-1.35-2.146v-1.08h.073c1.962 0 2.48 1.544 2.48 3.214s-.6 3.17-2.48 3.17zm5.046-.124h-1.193v-6.116h1.193v6.126zm.11-7.19a.707.707 0 1 1-.707-.707.707.707 0 0 1 .707.707zm5.34 5.416a1.884 1.884 0 0 1-2.124 1.905 3.907 3.907 0 0 1-2.107-.585l-.21-.127.5-1.02.253.173a3.017 3.017 0 0 0 1.562.5c.54 0 .955-.215.955-.81s-.7-.752-1.152-.9c-.98-.325-1.89-.728-1.89-1.92s1.053-1.7 2.114-1.7a3.977 3.977 0 0 1 1.786.45l.216.11-.4 1.06-.27-.167a2.7 2.7 0 0 0-1.317-.383c-.46 0-.955.116-.955.667s.828.712 1.214.834c.966.3 1.832.757 1.832 1.914zm5.845-3.613l-.577 1-.246-.24a1.89 1.89 0 0 0-1.35-.54c-1.238 0-1.578 1.08-1.578 2.124s.345 2.1 1.58 2.1a1.956 1.956 0 0 0 1.37-.56l.27-.223.494.99-.167.135a3.038 3.038 0 0 1-1.99.738c-1.89 0-2.758-1.414-2.758-3.16s.853-3.238 2.77-3.238a3.238 3.238 0 0 1 2 .712l.182.143zm2.16 5.4h-1.194v-6.123h1.194zm.11-7.194a.707.707 0 1 1-.707-.708.707.707 0 0 1 .707.698zm2.572 1.443a2.34 2.34 0 0 1 1.546-.51c1.695 0 2.16.9 2.16 2.447v3.81h-1.218v-3.616a2.262 2.262 0 0 0-.24-1.263 1.08 1.08 0 0 0-.84-.27 1.19 1.19 0 0 0-1.348 1.29v3.86h-1.193v-6.123h1.08zm-21.172-.51v1.08h-.06a1.16 1.16 0 0 0-1.3 1.254v1.468c0 .81.4 1.544 1.29 1.544h.052v1.05a2.1 2.1 0 0 1-1.35-.49v2.813h-1.173v-8.58h1.08l.03.363a2.19 2.19 0 0 1 1.43-.507zm-9.593 6.357v-1.007a2.6 2.6 0 0 0 1.177-.577v-1.633a5.842 5.842 0 0 0-1.178.12v-1.018a8.972 8.972 0 0 1 1.166-.09v-.37c-.04-.568-.33-.71-.877-.71a2.474 2.474 0 0 0-.288.017v-1.08q.17-.013.345-.015a1.77 1.77 0 0 1 2.024 1.98v3.037c0 .1 0 .254.114.294l.332.12-.7.962-.194-.08a.99.99 0 0 1-.567-.5 3.174 3.174 0 0 1-1.363.544zm0-6.344v1.08a3.546 3.546 0 0 0-1.53.58l-.25.17-.522-.98.22-.128a4.923 4.923 0 0 1 2.07-.72zm0 2.224v1.017c-.634.146-1.177.464-1.177 1.168a.912.912 0 0 0 .912.944 1.8 1.8 0 0 0 .27-.02v1.007a2.786 2.786 0 0 1-.39.027 1.876 1.876 0 0 1-1.99-1.937c0-1.484 1.15-2.024 2.38-2.21zm-9.836 4.12v-1.007a2.6 2.6 0 0 0 1.176-.577v-1.633a5.84 5.84 0 0 0-1.176.12v-1.018a8.977 8.977 0 0 1 1.166-.09v-.37c-.04-.568-.33-.71-.877-.71a2.48 2.48 0 0 0-.29.017v-1.08q.17-.013.346-.015a1.77 1.77 0 0 1 2.025 1.98v3.037c0 .1 0 .254.113.294l.332.12-.7.962-.194-.08a.99.99 0 0 1-.567-.5 3.173 3.173 0 0 1-1.35.54zm5.05-5.888a2.486 2.486 0 0 1 1.56-.46h.512v1.124h-.456c-.81 0-1.522.208-1.522 1.155v3.97h-1.193v-6.123h1.083zm-5.05-.456v1.08a3.547 3.547 0 0 0-1.53.6l-.25.17-.522-1 .22-.128a4.923 4.923 0 0 1 2.07-.72zm0 2.224v1.017c-.634.146-1.177.464-1.177 1.168a.912.912 0 0 0 .91.944 1.8 1.8 0 0 0 .27-.02v1.007a2.786 2.786 0 0 1-.388.027 1.876 1.876 0 0 1-1.99-1.937c0-1.484 1.15-2.024 2.38-2.21zM133 458.32v-1.05c1.15-.03 1.35-1.178 1.35-2.12 0-1.02-.085-2.12-1.35-2.145v-1.08h.073c1.962 0 2.48 1.544 2.48 3.215s-.6 3.17-2.48 3.17zm0-6.383v1.08h-.038a1.16 1.16 0 0 0-1.3 1.254v1.47c0 .808.4 1.543 1.29 1.543H133v1.05a2.1 2.1 0 0 1-1.35-.488v2.812h-1.208v-8.58h1.08l.03.363a2.19 2.19 0 0 1 1.43-.507zm-14.717 6.384v-1.06c1.24 0 1.5-1.078 1.5-2.123s-.25-2.132-1.506-2.134v-1.08c1.913 0 2.73 1.464 2.73 3.215s-.833 3.168-2.73 3.17zm7.915-1.904a1.884 1.884 0 0 1-2.124 1.905 3.907 3.907 0 0 1-2.107-.585l-.21-.127.5-1.02.254.173a3.014 3.014 0 0 0 1.563.5c.54 0 .955-.215.955-.81s-.7-.752-1.152-.9c-.98-.325-1.89-.728-1.89-1.92s1.053-1.7 2.114-1.7a3.977 3.977 0 0 1 1.786.45l.216.11-.4 1.06-.27-.168a2.7 2.7 0 0 0-1.317-.383c-.46 0-.955.115-.955.666s.828.712 1.214.834c.944.31 1.813.76 1.813 1.92zm-21.28-5.9l.877-.742 1.174.68-2.052 1.35v-1.284zm0 1.42c1.913 0 2.73 1.462 2.73 3.213s-.833 3.167-2.73 3.17v-1.06c1.24 0 1.5-1.08 1.5-2.124s-.254-2.136-1.51-2.136v-1.08zm13.352 0v1.078c-1.252 0-1.5 1.08-1.5 2.134s.27 2.12 1.506 2.124v1.06c-1.89 0-2.725-1.433-2.725-3.17s.81-3.215 2.726-3.215zm-8.222.47a2.488 2.488 0 0 1 1.56-.46h.513v1.128h-.455c-.81 0-1.522.208-1.522 1.155v3.97h-1.193v-6.123h1.08l.03.327zm4.19 5.795h-1.192v-6.122h1.193zm.112-7.193a.707.707 0 1 1-.707-.707.707.707 0 0 1 .702.7zm-9.74.947l-.72-.56 1.03-.87v1.276l-.224.146h.216v1.08c-1.252 0-1.5 1.078-1.5 2.133s.27 2.12 1.506 2.123v1.06c-1.89 0-2.725-1.433-2.725-3.17 0-1.66.712-3.056 2.43-3.2zm-16.046 6.37v-1.068h.15a2.28 2.28 0 0 0 1.49-.575l.252-.2.513.962-.176.138a3.257 3.257 0 0 1-2.1.737zm0-2.7V454.6h1.374c-.057-.766-.372-1.62-1.268-1.62h-.105v-1.035h.105c1.7 0 2.447 1.454 2.447 2.993a4.3 4.3 0 0 1 0 .453l-.027.238zm7.693.81a1.884 1.884 0 0 1-2.124 1.906 3.907 3.907 0 0 1-2.107-.586l-.21-.127.5-1.02.254.173a3.017 3.017 0 0 0 1.562.5c.54 0 .955-.216.955-.81s-.7-.752-1.152-.9c-.98-.326-1.89-.728-1.89-1.92s1.053-1.7 2.114-1.7a3.975 3.975 0 0 1 1.785.45l.216.11-.4 1.06-.27-.168a2.7 2.7 0 0 0-1.316-.383c-.46 0-.955.115-.955.666s.827.712 1.213.834c.966.3 1.832.756 1.832 1.913zm5.04 0a1.884 1.884 0 0 1-2.123 1.906 3.907 3.907 0 0 1-2.107-.586l-.21-.127.5-1.02.254.173a3.014 3.014 0 0 0 1.563.5c.54 0 .955-.216.955-.81s-.7-.752-1.152-.9c-.98-.326-1.89-.728-1.89-1.92s1.053-1.7 2.114-1.7a3.978 3.978 0 0 1 1.786.45l.216.11-.4 1.06-.27-.168a2.7 2.7 0 0 0-1.317-.383c-.46 0-.955.115-.955.666s.828.712 1.214.834c.955.294 1.83.745 1.83 1.9zm-12.733-4.478v1.036c-.942.05-1.31.777-1.373 1.62h1.374v1.024h-1.39c.066.866.452 1.57 1.385 1.638v1.063c-1.822-.062-2.6-1.454-2.6-3.18s.788-3.15 2.6-3.204zM76.8 458.29v-1.008a2.6 2.6 0 0 0 1.177-.578v-1.633a5.842 5.842 0 0 0-1.177.12v-1.017a8.982 8.982 0 0 1 1.166-.09v-.37c-.04-.568-.33-.71-.877-.71a2.48 2.48 0 0 0-.29.017v-1.08q.17-.013.345-.015a1.77 1.77 0 0 1 2.024 1.98v3.037c0 .1 0 .254.112.294l.332.12-.7.962-.194-.08a.99.99 0 0 1-.567-.5 3.173 3.173 0 0 1-1.35.54zm8.635-5.5l-.577 1-.246-.24a1.89 1.89 0 0 0-1.35-.54c-1.238 0-1.578 1.078-1.578 2.123s.345 2.1 1.58 2.1a1.956 1.956 0 0 0 1.37-.56l.27-.223.494.99-.167.135a3.04 3.04 0 0 1-1.99.74c-1.89 0-2.758-1.415-2.758-3.16s.853-3.24 2.77-3.24a3.238 3.238 0 0 1 2 .713zm-8.635-.843v1.08a3.546 3.546 0 0 0-1.53.585l-.25.17-.508-.98.22-.127a4.923 4.923 0 0 1 2.07-.72zm0 2.224v1.018c-.634.146-1.177.464-1.177 1.168a.912.912 0 0 0 .912.944 1.78 1.78 0 0 0 .27-.02v1.008a2.768 2.768 0 0 1-.39.027 1.874 1.874 0 0 1-1.99-1.937c0-1.484 1.15-2.023 2.375-2.21z" transform="translate(-332 -40.943) translate(-73.89 -423.712)"/></g></svg>